HIERARCHY
ROOT Hips
{
  OFFSET 57.8838 95.319 338.509
  CHANNELS 6 Xposition Yposition Zposition Zrotation Xrotation Yrotation
  JOINT LeftUpLeg
  {
    OFFSET 8.64259 1.95398 -2.38835
    CHANNELS 3 Zrotation Xrotation Yrotation
    JOINT LeftLeg
    {
      OFFSET 43.7702 0 0
      CHANNELS 3 Zrotation Xrotation Yrotation
      JOINT LeftFoot
      {
        OFFSET 40.6238 0 0
        CHANNELS 3 Zrotation Xrotation Yrotation
        JOINT LeftToeBase
        {
          OFFSET 12.7242 0 0
          CHANNELS 3 Zrotation Xrotation Yrotation
          End Site
          {
            OFFSET 0 0 0
          }
        }
      }
    }
  }
  JOINT RightUpLeg
  {
    OFFSET -8.2249 1.95398 -2.59336
    CHANNELS 3 Zrotation Xrotation Yrotation
    JOINT RightLeg
    {
      OFFSET 43.5653 0 0
      CHANNELS 3 Zrotation Xrotation Yrotation
      JOINT RightFoot
      {
        OFFSET 40.6238 0 0
        CHANNELS 3 Zrotation Xrotation Yrotation
        JOINT RightToeBase
        {
          OFFSET 12.7242 0 0
          CHANNELS 3 Zrotation Xrotation Yrotation
          End Site
          {
            OFFSET 0 0 0
          }
        }
      }
    }
  }
  JOINT Spine
  {
    OFFSET 0.165834 0.87714 6.61349
    CHANNELS 3 Zrotation Xrotation Yrotation
    JOINT Spine1
    {
      OFFSET 7.38963 1.71661e-005 0
      CHANNELS 3 Zrotation Xrotation Yrotation
      JOINT Spine2
      {
        OFFSET 11.9445 1.14441e-005 0
        CHANNELS 3 Zrotation Xrotation Yrotation
        JOINT Spine3
        {
          OFFSET 14.7254 4.19617e-005 0
          CHANNELS 3 Zrotation Xrotation Yrotation
          JOINT Spine4
          {
            OFFSET 10.9679 0 0
            CHANNELS 3 Zrotation Xrotation Yrotation
            JOINT RightShoulder
            {
              OFFSET 2.46616 -1.6653 3.69651
              CHANNELS 3 Zrotation Xrotation Yrotation
              JOINT RightArm
              {
                OFFSET 13.0012 0 0
                CHANNELS 3 Zrotation Xrotation Yrotation
                JOINT RightForeArm
                {
                  OFFSET 28.7848 1.62311e-005 0
                  CHANNELS 3 Zrotation Xrotation Yrotation
                  JOINT RightHand
                  {
                    OFFSET 26.5688 1.62095e-005 0
                    CHANNELS 3 Zrotation Xrotation Yrotation
                    End Site
                    {
                      OFFSET 0 0 0
                    }
                  }
                }
              }
            }
            JOINT LeftShoulder
            {
              OFFSET 2.38034 -1.29275 -3.7523
              CHANNELS 3 Zrotation Xrotation Yrotation
              JOINT LeftArm
              {
                OFFSET 16.3182 6.07031e-005 0
                CHANNELS 3 Zrotation Xrotation Yrotation
                JOINT LeftForeArm
                {
                  OFFSET 27.0901 0 0
                  CHANNELS 3 Zrotation Xrotation Yrotation
                  JOINT LeftHand
                  {
                    OFFSET 24.5451 1.51738e-005 0
                    CHANNELS 3 Zrotation Xrotation Yrotation
                    End Site
                    {
                      OFFSET 0 0 0
                    }
                  }
                }
              }
            }
            JOINT Neck
            {
              OFFSET 5.0226 -0.0266342 0
              CHANNELS 3 Zrotation Xrotation Yrotation
              JOINT Head
              {
                OFFSET 6.69364 2.86102e-005 0
                CHANNELS 3 Zrotation Xrotation Yrotation
                End Site
                {
                  OFFSET 0 0 0
                }
              }
            }
          }
        }
      }
    }
  }
}
MOTION
Frames:	17
Frame Time:	0.0416667
-69.7412 83.1499 138.053 -69.7803 -57.8588 -89.6104 178.836 16.8567 83.5245 -45.402 26.1061 2.68187 64.8448 8.56039 9.94372 66.402 20.1802 14.1391 162.288 56.5161 104.515 -113.085 -18.1891 -3.06373 57.2839 7.40653 1.28971 25.2221 5.40567 -4.72516 -0.722147 10.1346 -89.126 6.6175 -1.07111 1.77836 -5.05416 -0.991813 1.82377 -27.5876 -1.5561 1.37431 -7.57497 -1.5561 1.3743 95.1022 -55.0291 -92.2955 35.0515 -14.3468 9.78925 -3.7997 -20.6536 -20.4237 -4.69429 -0.0799727 -3.60427 -86.3295 -54.2229 84.8526 -4.98856 -9.63504 -54.9378 7.00709 10.9358 -61.9071 12.412 -1.89999 -18.2595 34.4257 -3.91589 2.34577 -10.788 -4.55596 -2.23394 
-93.7402 89.2814 161.174 -72.118 -51.3137 -80.2257 -175.962 -7.33179 96.9431 -34.5499 32.7899 8.85219 48.8528 -12.3402 -1.90705 46.9685 9.05302 12.9775 169.112 61.5161 103.29 -64.7319 -12.6847 1.66359 63.4444 0.173757 3.61207 30.3943 -2.14494 -9.27018 -1.26861 9.87326 -90.1086 7.1266 -2.5801 -0.0991085 -4.54178 -2.58195 0.0146179 -27.0958 -2.43096 -0.870403 -7.08308 -2.43095 -0.870408 91.5402 -50.3062 -98.3971 37.5658 -6.68444 28.9871 -0.43977 -6.30857 -19.5951 -0.969789 -0.0204132 -7.41447 -83.3652 -51.1394 88.8242 -0.804016 -10.6647 -36.8081 9.91679 2.61287 -83.4429 16.5286 -2.04748 -16.0869 28.7021 -0.709321 -11.159 -11.0678 2.54463 14.2383 
-117.391 89.7011 183.974 -80.2954 -45.6456 -85.911 -177.584 -6.50297 89.9656 -81.4965 15.1218 7.72005 49.1332 -9.17708 2.19667 47.9774 9.67227 13.3374 171.721 47.9235 97.903 -34.9379 -10.8454 6.48551 59.0583 7.64108 7.06565 29.0251 0.158581 -10.5365 -1.11247 10.1672 -90.0194 6.54353 -2.2304 0.0419574 -5.12545 -2.22638 0.140113 -27.6758 -2.13985 -0.630639 -7.66314 -2.13984 -0.630643 92.0387 -53.6844 -97.0036 34.3737 -3.00592 24.5295 4.03667 7.04071 -24.9008 0.653186 -0.0544018 -7.2475 -84.3906 -55.8018 87.7989 -8.91077 -10.8006 -27.7321 6.33667 20.352 -41.0314 7.71386 -1.21472 -16.9257 27.112 1.27543 -14.1936 -12.218 4.87093 18.9788 
-141.239 84.8931 205.951 -84.0357 -40.1923 -80.8342 -175.719 19.6562 98.1967 -123.863 6.51042 6.22589 51.3144 -5.32279 9.50759 42.5375 6.35433 9.83111 166.099 31.1514 108.677 -52.0062 -11.9815 8.17409 70.6428 -12.927 -2.27669 31.1888 -3.22533 -0.172484 -0.501591 10.055 -90.9312 6.74545 -1.39996 -1.7568 -4.92565 -1.47594 -1.69352 -27.4541 -0.807345 -2.09613 -7.44143 -0.807367 -2.09615 93.6776 -55.9289 -94.2536 24.885 -0.281034 0.941128 10.5324 16.3166 -32.1424 1.25369 -0.0797758 -8.22091 -83.7854 -63.0549 89.3428 -16.2227 -25.5592 -16.8841 -4.52195 61.3506 1.61323 5.72552 -0.75563 -15.5275 33.5495 3.81069 -12.0506 -16.8511 6.55022 17.329 
-167.197 83.8462 229.147 -82.9349 -31.4508 -81.5011 -176.553 49.5078 87.5799 -106.799 5.17159 6.0735 55.3179 -1.18336 13.1907 47.1777 8.82247 10.3942 175.219 3.37953 103.773 -45.9893 -14.5293 1.18253 75.6749 -14.6297 2.4912 40.4197 -16.172 -3.15105 1.1623 8.81126 -90.6003 9.28122 2.04879 -1.38104 -2.38927 1.98599 -1.46987 -24.9341 2.36921 -0.701278 -4.92148 2.36921 -0.701278 98.7784 -51.2749 -87.2175 20.6501 -4.25031 -9.52727 8.61246 11.727 -55.2304 -3.27784 -0.0489103 -9.65219 -85.8576 -60.4501 86.3195 -6.74782 -30.0739 9.20847 -2.07589 83.4019 0.826996 6.84093 -0.736015 -15.8284 22.5297 1.57835 -6.41887 -9.19395 2.97952 11.3445 
-194.872 87.6045 252.23 -83.3527 -34.0172 -84.1381 173.713 47.4499 90.8562 -43.766 10.5699 1.55623 53.082 -4.76933 7.03956 43.1115 6.53185 8.37767 174.079 -16.8782 93.9936 -32.6036 -14.884 -1.64102 54.5346 14.0893 13.8402 19.6318 14.1293 -6.81849 2.07832 8.61742 -90.626 9.66705 3.86046 -1.5423 -1.99928 3.78885 -1.7109 -24.5799 4.14524 -0.308938 -4.56722 4.14522 -0.308949 105.308 -37.5752 -76.2666 39.7313 10.3582 -2.75706 -6.9143 1.06265 -93.5177 7.63984 1.12454 10.7656 -87.8729 -58.1154 83.262 -4.35304 -23.0031 12.6743 -7.99663 71.535 -0.0375776 4.15018 -0.674834 -16.9969 22.5017 -0.427562 13.5661 -13.4358 -4.11153 -8.75104 
-220.284 85.9113 273.602 -90.2997 -34.6299 -85.4155 -177.615 37.9634 88.3056 -30.0532 7.99671 -3.78864 52.4563 -9.13935 8.03024 36.0155 2.96692 8.30757 172.883 -8.52594 92.9153 -79.365 -12.0974 -3.22977 55.8335 6.47223 2.84791 21.683 11.0437 -6.81611 2.98336 10.1567 -91.7892 6.63039 5.19682 -3.72338 -5.03641 5.02805 -3.94859 -27.6383 6.07495 -1.98603 -7.62565 6.07497 -1.98605 110.636 -30.9501 -65.1543 46.0888 17.8897 -11.298 -12.6233 -7.54901 -82.7433 6.70659 1.36056 15.0052 -92.4704 -67.0113 78.7686 -4.41318 -19.4996 -7.55305 -1.75509 44.8109 -11.4446 2.66347 -0.64607 -16.8901 30.2835 4.25614 40.7837 -18.2862 -9.38589 -29.0681 
-244.115 80.9154 294.016 -101.028 -47.9704 -101.163 -174.543 19.2438 72.4492 -58.0532 21.0905 -2.16747 59.2615 13.1219 29.8401 50.6626 10.1865 6.37376 168.012 20.1537 87.0201 -108.092 -7.10426 -3.64862 60.8196 -1.3602 -4.96816 30.6384 -2.52866 -8.6284 1.40305 12.2374 -92.8287 2.3828 1.71136 -5.52715 -9.29973 1.46699 -5.59681 -31.7647 3.29064 -4.76036 -11.752 3.29063 -4.76037 111.373 -16.9808 -58.55 59.8849 19.5748 -24.6579 -12.204 -21.4855 -37.6177 3.11771 0.366433 8.82026 -98.5587 -79.5562 74.2815 -17.4248 -19.8962 -51.3885 3.94279 32.034 -13.7002 6.61459 -1.13783 -17.1144 37.2822 12.7672 70.0183 -23.7174 -15.7934 -45.4418 
-267.178 82.8801 313.224 -125.134 -51.824 -128.09 179.016 -12.3703 71.2367 -56.5189 23.502 3.09102 59.5243 4.84717 13.4617 60.7491 15.8871 10.4451 174.533 34.0388 74.9759 -80.9317 -9.24342 -4.1242 64.0529 -1.81569 -0.218046 35.4519 -10.7726 -11.6567 0.276589 12.49 -95.1765 1.68722 -1.42488 -10.0986 -10.0228 -1.86489 -10.0273 -32.2433 1.65679 -10.0635 -12.2306 1.65679 -10.0635 100.642 32.3889 -57.1707 89.8218 32.3498 -10.9835 -4.11657 -43.2677 -4.23599 -2.58136 0.57402 -1.39393 -105.988 -85.8304 68.097 -28.302 -0.790762 -57.4524 8.68098 27.3477 -33.0913 4.16351 -1.09488 -22.2395 17.1887 -14.7706 97.3757 -1.38378 -42.3543 -49.637 
-291.878 84.6992 332.723 -131.232 -49.9077 -143.634 172.439 -24.8659 66.5473 -60.3603 18.1934 4.97882 54.5094 -2.82191 10.3829 52.0668 11.8714 13.1468 173.889 30.3854 64.6514 -26.2724 3.79559 -3.83625 56.7727 15.4142 27.3969 5.6978 26.9336 7.01959 2.58138 10.7857 -100.074 4.96587 1.03789 -19.7908 -6.85412 0.183149 -19.8161 -28.2979 6.83549 -18.6453 -8.2852 6.83549 -18.6453 -165.071 82.7257 173.566 42.6176 56.9961 71.2337 -41.1026 4.28909 -0.0205514 24.4253 -5.23044 -29.123 -126.084 -57.3294 33.1261 -66.1127 20.9827 -45.7221 20.2405 10.466 -74.9401 -1.51768 -0.243912 -24.716 21.1467 -50.9434 123.51 -16.5651 -69.6905 -55.2843 
-318.021 71.9746 353.886 -121.251 -51.4593 -148.846 175.649 -17.3406 62.118 -91.5721 8.87726 2.59784 57.7594 -10.3634 7.17758 103.468 16.9877 -18.3232 -177.866 42.6005 50.6502 4.26424 45.8035 -13.6936 6.02296 26.6382 130.494 22.4859 27.6228 -44.2448 2.40685 10.5195 -99.33 5.54336 0.942597 -18.3561 -6.25608 0.147638 -18.3789 -27.8508 6.33386 -17.2891 -7.83817 6.33386 -17.2891 179.679 65.9846 159.676 -2.34649 43.0216 117.958 -86.8833 3.85143 -35.4052 54.7054 30.3487 50.0874 -120.888 -46.1988 33.0387 -87.7755 15.6796 -34.849 11.4016 6.00991 -86.9258 6.8013 -1.14483 -15.6515 23.4657 -53.3197 130.267 -39.6914 -67.6877 -75.4102 
-342.072 58.0483 374.577 -108.879 -51.1336 -146.437 163.723 -21.4079 53.9783 -100.296 12.9233 3.65109 48.4639 -37.9598 -9.71609 128.113 -9.91158 -57.09 -158.539 59.6907 41.2762 3.76554 44.2147 -8.31945 14.142 13.0677 131.382 26.1895 25.5824 -56.8427 2.42906 10.7975 -98.5157 5.08041 1.35473 -16.7419 -6.69722 0.627021 -16.7837 -28.4664 6.26395 -15.6147 -8.45378 6.26396 -15.6147 -178.307 61.3876 150.007 -20.2185 22.9949 128.388 -79.1127 9.80941 -87.904 35.696 41.2707 94.6401 -116.171 -40.4244 35.825 -103.549 26.0051 -33.0611 20.25 12.4046 -31.7125 1.70202 -1.21538 -19.1507 22.9641 -52.4201 131.729 -48.4674 -59.0547 -91.577 
-362.059 51.8609 391.612 -100.761 -50.7324 -146.631 140.798 -23.607 36.1468 -91.1757 28.4864 -0.529924 50.5426 -43.383 -16.2071 129.202 -16.9761 -62.0798 -140.436 68.2818 28.7296 0.731584 27.9299 -0.768485 39.7835 20.6704 122.114 25.0954 38.652 -59.5249 2.19884 11.0062 -97.4847 4.712 1.34007 -14.6982 -7.04134 0.69902 -14.7416 -28.9894 5.65512 -13.6536 -8.97675 5.65511 -13.6536 -167.661 61.9457 142.891 -20.9961 25.3926 128.087 -90.0904 13.4772 -97.7141 41.8334 48.8089 93.8616 -113.153 -43.5306 41.9788 -107.458 38.0503 -32.541 8.88977 40.2668 0.453445 -23.2169 4.49779 -25.085 18.1745 -52.1795 127.033 -40.7268 -53.4042 -99.9114 
-379.247 51.2017 407.152 -95.2544 -50.0247 -147.03 118.814 -5.48702 15.7535 -60.9737 44.4175 -19.7025 49.0679 -41.4399 -16.0248 136.625 -17.1919 -59.9696 -123.277 73.623 14.8734 62.5032 -82.2228 67.9811 69.3101 -5.26541 11.0007 -24.3322 54.1599 15.3672 1.98526 11.1158 -96.7479 4.52145 1.22294 -13.2431 -7.21646 0.644126 -13.2831 -29.2753 5.11697 -12.291 -9.26265 5.11698 -12.291 -159.05 62.1948 137.477 -18.3331 31.4908 126.429 -101.509 17.7351 -95.3263 50.7936 51.9494 85.6155 -110.769 -46.441 46.9797 -124.407 22.3999 -19.825 18.4897 74.3416 0.101846 -17.9857 7.12817 -49.3453 12.4529 -51.7733 121.072 -33.4845 -51.3869 -103.315 
-395.748 52.2812 421.353 -91.4486 -49.2513 -147.613 104.969 34.3131 1.34066 -19.4904 37.9134 -36.0181 51.9804 -52.0415 -9.79218 139.096 -19.725 -61.246 -111.814 75.9653 7.86608 166.888 -51.9982 171.66 62.0974 3.24044 -17.9406 -28.5905 50.527 24.7996 1.41362 11.028 -94.9851 4.73319 0.786467 -9.78166 -6.97469 0.357433 -9.80646 -29.2456 3.67726 -9.10398 -9.23294 3.67726 -9.10399 -130.971 71.7018 130.516 14.1487 61.6871 97.625 -114.408 18.1742 -86.4444 58.2192 52.663 77.4788 -108.032 -48.7348 51.9974 -129.694 -10.9764 -15.7228 -142.869 62.0424 179.889 -8.19387 3.79207 -60.5354 -5.66293 -49.5206 101.613 -12.5556 -51.6983 -102.293 
-410.392 53.5048 434.196 -88.7899 -48.4823 -148.273 -120.859 81.51 -152.539 -3.29698 11.4297 -11.5325 102.974 -76.2374 43.5336 136.575 -22.9764 -64.6746 -105.856 77.3222 4.38186 168.608 -43.7527 172.872 61.5512 4.83111 -20.3793 -31.4321 50.6915 27.8166 1.38251 11.0058 -94.7236 4.80175 0.82753 -9.27787 -6.90215 0.420185 -9.30497 -29.2029 3.56746 -8.60966 -9.19022 3.56747 -8.60969 -133.631 70.3882 130.902 11.9775 60.3556 100.477 -118.869 19.1445 -84.9581 61.5238 53.0504 74.2036 -106.925 -48.8396 53.6085 -133.673 -30.5171 -9.78342 -135.998 24.5151 179.934 -1.54539 -0.0170558 -61.6223 -27.9615 -44.5653 83.987 13.7573 -54.0778 -97.3438 
-422.858 54.3294 445.196 -86.9168 -47.7376 -148.935 86.664 69.708 -5.83967 2.42581 34.6609 -3.74182 56.4895 -77.7379 -1.72335 133.191 -25.1628 -67.7942 -102.138 78.3069 2.59116 169.246 -38.9193 173.183 61.3505 5.51356 -21.1222 -33.4908 50.81 29.9314 1.32134 10.9621 -94.4414 4.89767 0.816945 -8.72682 -6.80243 0.433578 -8.75403 -29.1308 3.3935 -8.08577 -9.11821 3.39352 -8.08579 -135.38 70.0352 131.679 13.3515 60.1838 99.5558 -122.086 19.8233 -83.5249 63.6621 53.2488 72.1011 -106.124 -48.9461 54.7926 -131.545 -45.7456 -2.25194 -135.341 -4.80099 179.636 2.2264 -2.39105 -59.6976 -31.0207 -43.2887 79.978 19.0909 -53.9648 -91.9575 
